<mxfile host="app.diagrams.net" agent="Mozilla/5.0 (Windows NT 10.0; Win64; x64) AppleWebKit/537.36 (KHTML, like Gecko) Chrome/138.0.0.0 Safari/537.36" version="27.1.6">
  <diagram name="Page-1" id="MSLT0cGJKTed0oheF8NF">
    <mxGraphModel dx="1123" dy="644" grid="1" gridSize="10" guides="1" tooltips="1" connect="1" arrows="1" fold="1" page="1" pageScale="1" pageWidth="850" pageHeight="1100" math="0" shadow="0">
      <root>
        <mxCell id="0" />
        <mxCell id="1" parent="0" />
        <mxCell id="znNm5AY3A7tvqBGqQOof-4" value="users" style="whiteSpace=wrap;html=1;align=center;" parent="1" vertex="1">
          <mxGeometry x="60" y="220" width="100" height="40" as="geometry" />
        </mxCell>
        <mxCell id="cyP1OhGZ9KKzenbYe_Lu-3" value="soal_ujian" style="whiteSpace=wrap;html=1;align=center;" vertex="1" parent="1">
          <mxGeometry x="690" y="210" width="100" height="40" as="geometry" />
        </mxCell>
        <mxCell id="cyP1OhGZ9KKzenbYe_Lu-5" value="guru" style="whiteSpace=wrap;html=1;align=center;" vertex="1" parent="1">
          <mxGeometry x="340" y="90" width="100" height="40" as="geometry" />
        </mxCell>
        <mxCell id="cyP1OhGZ9KKzenbYe_Lu-6" value="siswa" style="whiteSpace=wrap;html=1;align=center;" vertex="1" parent="1">
          <mxGeometry x="340" y="370" width="100" height="40" as="geometry" />
        </mxCell>
        <mxCell id="cyP1OhGZ9KKzenbYe_Lu-7" value="mata_pelajaran" style="whiteSpace=wrap;html=1;align=center;" vertex="1" parent="1">
          <mxGeometry x="850" y="420" width="100" height="40" as="geometry" />
        </mxCell>
        <mxCell id="cyP1OhGZ9KKzenbYe_Lu-8" value="data_ujian" style="whiteSpace=wrap;html=1;align=center;" vertex="1" parent="1">
          <mxGeometry x="890" y="120" width="100" height="40" as="geometry" />
        </mxCell>
      </root>
    </mxGraphModel>
  </diagram>
</mxfile>
